HIERARCHY
ROOT Hips
{
  OFFSET 263.056 91.6644 -274.608
  CHANNELS 6 Xposition Yposition Zposition Zrotation Xrotation Yrotation
  JOINT LeftUpLeg
  {
    OFFSET 8.64259 1.95398 -2.38835
    CHANNELS 3 Zrotation Xrotation Yrotation
    JOINT LeftLeg
    {
      OFFSET 43.7702 0 0
      CHANNELS 3 Zrotation Xrotation Yrotation
      JOINT LeftFoot
      {
        OFFSET 40.6238 0 0
        CHANNELS 3 Zrotation Xrotation Yrotation
        JOINT LeftToeBase
        {
          OFFSET 12.7242 0 0
          CHANNELS 3 Zrotation Xrotation Yrotation
          End Site
          {
            OFFSET 0 0 0
          }
        }
      }
    }
  }
  JOINT RightUpLeg
  {
    OFFSET -8.2249 1.95398 -2.59336
    CHANNELS 3 Zrotation Xrotation Yrotation
    JOINT RightLeg
    {
      OFFSET 43.5653 0 0
      CHANNELS 3 Zrotation Xrotation Yrotation
      JOINT RightFoot
      {
        OFFSET 40.6238 0 0
        CHANNELS 3 Zrotation Xrotation Yrotation
        JOINT RightToeBase
        {
          OFFSET 12.7242 0 0
          CHANNELS 3 Zrotation Xrotation Yrotation
          End Site
          {
            OFFSET 0 0 0
          }
        }
      }
    }
  }
  JOINT Spine
  {
    OFFSET 0.165834 0.87714 6.61349
    CHANNELS 3 Zrotation Xrotation Yrotation
    JOINT Spine1
    {
      OFFSET 7.38963 1.71661e-005 0
      CHANNELS 3 Zrotation Xrotation Yrotation
      JOINT Spine2
      {
        OFFSET 11.9445 1.14441e-005 0
        CHANNELS 3 Zrotation Xrotation Yrotation
        JOINT Spine3
        {
          OFFSET 14.7254 4.19617e-005 0
          CHANNELS 3 Zrotation Xrotation Yrotation
          JOINT Spine4
          {
            OFFSET 10.9679 0 0
            CHANNELS 3 Zrotation Xrotation Yrotation
            JOINT RightShoulder
            {
              OFFSET 2.46616 -1.6653 3.69651
              CHANNELS 3 Zrotation Xrotation Yrotation
              JOINT RightArm
              {
                OFFSET 13.0012 0 0
                CHANNELS 3 Zrotation Xrotation Yrotation
                JOINT RightForeArm
                {
                  OFFSET 28.7848 1.52588e-005 0
                  CHANNELS 3 Zrotation Xrotation Yrotation
                  JOINT RightHand
                  {
                    OFFSET 26.5688 1.52588e-005 0
                    CHANNELS 3 Zrotation Xrotation Yrotation
                    End Site
                    {
                      OFFSET 0 0 0
                    }
                  }
                }
              }
            }
            JOINT LeftShoulder
            {
              OFFSET 2.38034 -1.29275 -3.7523
              CHANNELS 3 Zrotation Xrotation Yrotation
              JOINT LeftArm
              {
                OFFSET 16.3182 6.10352e-005 0
                CHANNELS 3 Zrotation Xrotation Yrotation
                JOINT LeftForeArm
                {
                  OFFSET 27.0901 0 0
                  CHANNELS 3 Zrotation Xrotation Yrotation
                  JOINT LeftHand
                  {
                    OFFSET 24.5451 1.52588e-005 0
                    CHANNELS 3 Zrotation Xrotation Yrotation
                    End Site
                    {
                      OFFSET 0 0 0
                    }
                  }
                }
              }
            }
            JOINT Neck
            {
              OFFSET 5.0226 -0.0266342 0
              CHANNELS 3 Zrotation Xrotation Yrotation
              JOINT Head
              {
                OFFSET 6.69364 2.86102e-005 0
                CHANNELS 3 Zrotation Xrotation Yrotation
                End Site
                {
                  OFFSET 0 0 0
                }
              }
            }
          }
        }
      }
    }
  }
}
MOTION
Frames:	7
Frame Time:	0.0416667
-58.2106 54.5829 -2.37453 102.328 -71.7062 110.729 167.364 42.6689 96.4672 -121.159 31.7805 -1.50644 32.5329 -12.8437 2.1311 68.7852 65.6041 30.0073 121.267 67.6598 129.621 -111.348 16.4673 -6.63692 79.2599 -9.30905 -6.11438 50.9949 2.64439 9.54312 0.493776 12.7532 -92.3525 1.34613 0.0910153 -4.58106 -10.3329 -0.110476 -4.58065 -32.8082 1.4623 -4.34284 -12.7955 1.4623 -4.34282 83.2211 -37.2385 -116.213 1.44963 -4.07721 -14.3238 -7.35075 -15.3983 -42.9107 -21.4123 -2.52606 9.4731 -104.854 -36.7148 50.5214 -35.7744 7.32556 24.0495 1.03115 1.34479 -35.108 17.5521 0.828667 0.859693 12.389 -8.96602 2.71087 22.4139 -9.29961 -0.0617015 
-58.2222 54.5559 -2.48033 104.021 -71.5432 112.538 167.505 42.362 96.4942 -121.382 31.8806 -1.51847 33.2166 -12.1516 3.43847 63.1393 64.0686 36.8533 122.206 67.3058 128.704 -111.318 16.3586 -6.59502 78.9361 -9.2556 -6.09569 50.1755 2.46499 9.09334 0.521309 12.815 -92.3781 1.22296 0.138738 -4.62811 -10.4562 -0.0648584 -4.62974 -32.9306 1.52193 -4.37342 -12.918 1.52193 -4.37344 83.4627 -37.089 -115.863 1.79756 -3.99495 -14.3638 -7.67491 -15.4415 -43.0848 -21.176 -2.38107 8.81307 -104.851 -36.5546 50.4356 -36.1835 7.39763 24.0214 0.390612 0.431968 -35.0724 19.0012 0.77341 0.202772 12.5275 -8.6848 2.83232 22.64 -9.08642 -0.177104 
-58.1766 54.5927 -2.51115 104.75 -71.3321 113.646 167.538 41.8971 96.7752 -121.256 31.5052 -1.46052 32.3511 -12.4652 4.44775 63.4199 63.9126 36.2812 122.534 66.805 128.186 -111.229 15.9729 -6.51415 78.5426 -9.11925 -6.04286 51.7584 2.63105 8.65011 0.519306 12.8451 -92.4279 1.16154 0.117102 -4.72518 -10.518 -0.0907436 -4.72576 -32.9896 1.53036 -4.47256 -12.977 1.53036 -4.47255 83.2898 -36.925 -116.239 1.82664 -3.97674 -14.0036 -7.88209 -15.435 -43.6491 -21.2635 -2.44293 9.11298 -104.764 -36.5092 50.5499 -36.3733 7.27173 24.0262 0.420229 0.390801 -35.0562 18.7896 0.83364 0.57426 12.2967 -8.73069 3.08024 22.7555 -9.25653 -0.469937 
-58.1155 54.6299 -2.56501 106.438 -71.0799 115.886 167.107 41.2544 97.4022 -121.383 31.4737 -1.47792 32.7809 -12.1994 4.29798 62.5289 64.2683 37.9619 123.413 65.974 127.245 -111.08 15.7036 -6.39286 78.2365 -9.05308 -6.0055 51.6228 2.54323 8.16184 0.565953 12.9114 -92.489 1.02917 0.189861 -4.84035 -10.6508 -0.0231031 -4.84402 -33.1199 1.63428 -4.56068 -13.1072 1.63429 -4.56066 83.2704 -37.0055 -116.235 1.96442 -3.85434 -14.0229 -7.88639 -15.4616 -43.6596 -21.1164 -2.41322 9.03784 -104.695 -36.3962 50.5962 -36.3707 7.40154 24.1516 0.313889 0.298776 -35.1543 18.7764 0.817885 0.493326 12.1591 -8.68956 2.84006 22.838 -9.12028 -0.313901 
-58.0282 54.6846 -2.68148 108.281 -70.5836 118.356 166.468 40.416 98.0398 -121.46 31.5284 -1.51662 32.6514 -12.2049 4.90495 62.3169 63.1625 37.2816 124.337 64.9732 126.104 -110.86 15.7225 -6.25753 78.3185 -9.12573 -6.01368 52.4376 2.74841 8.80058 0.583676 12.9971 -92.5882 0.856043 0.191562 -5.03156 -10.8246 -0.0298075 -5.0351 -33.2884 1.69319 -4.74265 -13.2757 1.69318 -4.74265 83.235 -36.8094 -116.388 2.08789 -3.71038 -13.8025 -7.90728 -15.4277 -43.7638 -21.1746 -2.40106 8.92799 -104.849 -36.5114 50.4149 -36.2804 7.36711 24.2198 0.206019 0.0759925 -35.1132 18.8828 0.787232 0.305476 12.1166 -8.63982 2.95093 22.7739 -9.08 -0.230786 
-57.9553 54.7279 -2.7906 110.332 -69.8796 121.17 165.647 39.489 98.8588 -121.7 31.4745 -1.54765 32.942 -12.0282 4.66858 62.1466 63.4383 37.7979 125.389 63.5597 124.809 -110.513 16.4455 -6.08353 79.6405 -9.70302 -6.13189 49.286 2.50721 10.5016 0.618463 13.101 -92.6874 0.647039 0.228295 -5.22076 -11.0344 -0.00137179 -5.22574 -33.4929 1.7849 -4.91225 -13.4802 1.7849 -4.91226 83.1 -36.977 -116.544 1.93403 -3.81902 -13.6613 -7.75181 -15.1006 -43.9097 -21.1353 -2.43085 9.09969 -104.728 -36.3691 50.5279 -36.2926 7.35847 24.1969 0.298627 0.257491 -34.9679 18.7273 0.725993 0.0125687 12.1722 -8.60785 2.75532 22.8322 -8.97909 -0.131711 
-57.8237 54.7957 -2.88797 112.751 -69.3178 124.55 165.006 38.1866 99.8282 -121.734 31.4538 -1.58167 32.7924 -12.1672 4.72434 64.4815 65.1968 35.8773 126.65 61.668 123.437 -109.837 17.352 -5.86321 81.4129 -10.4706 -6.23548 48.0722 2.52815 12.4129 0.673019 13.241 -92.7949 0.366354 0.303443 -5.42303 -11.3159 0.0648311 -5.4311 -33.769 1.91716 -5.08283 -13.7564 1.91716 -5.08284 83.1838 -36.9194 -116.425 2.02413 -3.66456 -13.9682 -7.86602 -15.22 -43.893 -21.0302 -2.38374 8.90456 -104.372 -36.2955 51.0586 -36.4014 7.57901 23.9875 0.153939 0.199022 -34.9409 18.8529 0.710827 -0.0950814 12.7866 -8.59369 2.54488 22.3503 -8.9189 -0.126315 
